<svg id="Calque_1" data-name="Calque 1" xmlns="http://www.w3.org/2000/svg" viewBox="0 0 294.96 177.59"><defs><style>.cls-1{fill:#fff;}</style></defs><polygon class="cls-1" points="230.13 113.34 230.3 0 201.09 0 201.09 83.67 222.03 131.97 294.96 131.9 294.96 113.39 230.13 113.34"/><polygon class="cls-1" points="127.64 46.46 127.64 0 98.35 0 98.35 55.84 29.11 55.84 29.11 0 0 0 0 131.97 29.11 131.97 29.11 74.44 98.35 74.44 98.35 113.67 127.64 46.46"/><polygon class="cls-1" points="147.99 46.29 140.67 63.18 166.36 122.33 114.98 122.29 106.9 140.92 174.41 140.86 190.37 177.59 221.58 177.59 164.63 46.29 147.99 46.29"/></svg>